<svg width="4" height="10" viewBox="0 0 4 10" fill="none" xmlns="http://www.w3.org/2000/svg">
<path d="M3.10753 1.6076C3.10753 0.995879 2.61165 0.5 1.99993 0.5C1.38821 0.5 0.892334 0.995879 0.892334 1.6076V5.5233C0.892334 6.13502 1.38821 6.6309 1.99993 6.6309C2.61165 6.6309 3.10753 6.13502 3.10753 5.5233V1.6076ZM2.55382 7.33631C2.38208 7.30766 2.2012 7.29377 1.99993 7.29359C1.79849 7.29377 1.61761 7.30766 1.44675 7.33613C1.20048 7.37955 0.982861 7.59734 0.939443 7.84274C0.910967 8.01447 0.896904 8.19535 0.896729 8.39662C0.896904 8.59807 0.910967 8.77895 0.939268 8.94981C0.982686 9.19608 1.20048 9.41387 1.44587 9.45711C1.61761 9.48559 1.79849 9.49965 1.99976 9.49982H1.99993C2.2012 9.49965 2.38208 9.48559 2.55294 9.45729C2.79921 9.41369 3.01683 9.19608 3.06024 8.95068C3.08872 8.77895 3.10278 8.59807 3.10296 8.3968C3.10278 8.19518 3.08872 8.0143 3.06042 7.84361C3.017 7.59734 2.79921 7.37973 2.55382 7.33631Z" fill="#B45309"/>
</svg>
