<svg width="13" height="12" viewBox="0 0 13 12" fill="none" xmlns="http://www.w3.org/2000/svg">
<path d="M10.9999 3C10.9999 2.60218 10.8419 2.22064 10.5606 1.93934C10.2793 1.65804 9.89773 1.5 9.49991 1.5H3.49991C3.1979 1.50179 2.90347 1.5947 2.65514 1.76657C2.4068 1.93845 2.21613 2.18128 2.10808 2.4633C2.00003 2.74532 1.97962 3.05339 2.04953 3.3472C2.11944 3.64101 2.27641 3.90687 2.49991 4.11V9C2.49991 9.39782 2.65794 9.77936 2.93925 10.0607C3.22055 10.342 3.60208 10.5 3.99991 10.5H8.99991C9.39773 10.5 9.77926 10.342 10.0606 10.0607C10.3419 9.77936 10.4999 9.39782 10.4999 9V4.11C10.6562 3.97021 10.7815 3.7992 10.8676 3.60801C10.9537 3.41681 10.9988 3.20969 10.9999 3ZM3.49991 2.5H9.49991C9.63252 2.5 9.75969 2.55268 9.85346 2.64645C9.94723 2.74021 9.99991 2.86739 9.99991 3C9.99991 3.13261 9.94723 3.25979 9.85346 3.35355C9.75969 3.44732 9.63252 3.5 9.49991 3.5H3.49991C3.3673 3.5 3.24012 3.44732 3.14635 3.35355C3.05259 3.25979 2.99991 3.13261 2.99991 3C2.99991 2.86739 3.05259 2.74021 3.14635 2.64645C3.24012 2.55268 3.3673 2.5 3.49991 2.5ZM9.49991 9C9.49991 9.13261 9.44723 9.25979 9.35346 9.35355C9.25969 9.44732 9.13252 9.5 8.99991 9.5H3.99991C3.8673 9.5 3.74012 9.44732 3.64635 9.35355C3.55259 9.25979 3.49991 9.13261 3.49991 9V4.5H9.49991V9Z" fill="#4F4745"/>
<path d="M7.565 6H5.435C5.19476 6 5 6.19476 5 6.435V6.565C5 6.80524 5.19476 7 5.435 7H7.565C7.80524 7 8 6.80524 8 6.565V6.435C8 6.19476 7.80524 6 7.565 6Z" fill="#4F4745"/>
</svg>
