<svg width="14" height="13" viewBox="0 0 14 13" fill="none" xmlns="http://www.w3.org/2000/svg">
<path d="M6.52193 1.3022C6.67559 0.990908 6.75242 0.835262 6.85672 0.785532C6.94746 0.742266 7.05289 0.742266 7.14363 0.785532C7.24793 0.835262 7.32476 0.990908 7.47842 1.3022L8.9362 4.25551C8.98157 4.34741 9.00425 4.39336 9.0374 4.42904C9.06674 4.46063 9.10194 4.48622 9.14104 4.5044C9.1852 4.52494 9.2359 4.53235 9.33731 4.54717L12.5982 5.02379C12.9415 5.07398 13.1132 5.09908 13.1927 5.18295C13.2618 5.25592 13.2943 5.35619 13.2812 5.45584C13.266 5.57038 13.1417 5.69144 12.8931 5.93358L10.5345 8.23094C10.4609 8.30255 10.4242 8.33836 10.4004 8.38096C10.3794 8.41869 10.366 8.46013 10.3608 8.50299C10.3549 8.5514 10.3636 8.60199 10.3809 8.70315L10.9375 11.9481C10.9962 12.2903 11.0255 12.4614 10.9704 12.563C10.9224 12.6513 10.8371 12.7133 10.7382 12.7316C10.6246 12.7527 10.4709 12.6719 10.1636 12.5103L7.24841 10.9772C7.15758 10.9294 7.11217 10.9056 7.06432 10.8962C7.02196 10.8879 6.97839 10.8879 6.93602 10.8962C6.88818 10.9056 6.84276 10.9294 6.75193 10.9772L3.83678 12.5103C3.52944 12.6719 3.37577 12.7527 3.26214 12.7316C3.16328 12.7133 3.07798 12.6513 3.02999 12.563C2.97483 12.4614 3.00418 12.2903 3.06288 11.9481L3.61942 8.70315C3.63677 8.60199 3.64545 8.5514 3.63958 8.50299C3.63438 8.46013 3.6209 8.41869 3.5999 8.38096C3.57618 8.33836 3.53941 8.30255 3.46589 8.23094L1.1072 5.93358C0.858605 5.69144 0.734306 5.57038 0.71918 5.45584C0.70602 5.35619 0.738532 5.25592 0.807663 5.18295C0.88712 5.09908 1.05881 5.07398 1.40219 5.02379L4.66304 4.54717C4.76445 4.53235 4.81515 4.52494 4.85931 4.5044C4.89841 4.48622 4.9336 4.46063 4.96295 4.42904C4.9961 4.39336 5.01878 4.34741 5.06415 4.25551L6.52193 1.3022Z" fill="#FBBF24"/>
</svg>
