<?xml version="1.0" encoding="UTF-8" standalone="no"?>
<svg
   width="76"
   height="56"
   viewBox="0 0 76 56"
   fill="none"
   version="1.1"
   id="svg9"
   sodipodi:docname="kaj.svg"
   inkscape:version="1.3 (0e150ed6c4, 2023-07-21)"
   xmlns:inkscape="http://www.inkscape.org/namespaces/inkscape"
   xmlns:sodipodi="http://sodipodi.sourceforge.net/DTD/sodipodi-0.dtd"
   xmlns="http://www.w3.org/2000/svg"
   xmlns:svg="http://www.w3.org/2000/svg">
  <defs
     id="defs9" />
  <sodipodi:namedview
     id="namedview9"
     pagecolor="#ffffff"
     bordercolor="#999999"
     borderopacity="1"
     inkscape:showpageshadow="2"
     inkscape:pageopacity="0"
     inkscape:pagecheckerboard="0"
     inkscape:deskcolor="#d1d1d1"
     inkscape:zoom="5.6568542"
     inkscape:cx="34.117902"
     inkscape:cy="21.124815"
     inkscape:window-width="1920"
     inkscape:window-height="1017"
     inkscape:window-x="-8"
     inkscape:window-y="-8"
     inkscape:window-maximized="1"
     inkscape:current-layer="layer1" />
  <g
     inkscape:groupmode="layer"
     id="layer1"
     inkscape:label="Layer 1"
     style="fill:#000000;fill-opacity:1">
    <rect
       style="fill:#ffffff;fill-opacity:1;fill-rule:evenodd;stroke:none"
       id="rect18"
       width="110.48544"
       height="78.1353"
       x="-15.202796"
       y="-11.490485" />
  </g>
  <g
     inkscape:groupmode="layer"
     id="layer2"
     inkscape:label="Layer 2">
    <path
       id="path10"
       d="M 0 0 L 0 0.45898438 L 1.8984375 0.45898438 C 2.3235271 0.45898438 2.7016016 0.52191237 3.0507812 0.64453125 C 3.3999609 0.76715113 3.674179 1.0271191 3.8867188 1.4179688 C 4.0992585 1.8164884 4.2050781 2.4221683 4.2050781 3.2421875 L 4.2050781 29.414062 C 4.2050781 30.203362 4.0992585 30.800607 3.8867188 31.191406 C 3.674179 31.590006 3.3923709 31.849844 3.0507812 31.964844 C 2.7016016 32.087444 2.3235271 32.148438 1.8984375 32.148438 L 0 32.148438 L 0 32.609375 L 15.607422 32.609375 L 15.607422 32.148438 L 13.708984 32.148438 C 13.283885 32.148438 12.897503 32.081259 12.533203 31.943359 C 12.168803 31.80536 11.886328 31.521109 11.673828 31.099609 C 11.461228 30.67041 11.355469 30.034193 11.355469 29.183594 L 11.355469 18.355469 L 12.714844 16.890625 L 25.679688 39.369141 C 26.104787 40.09724 26.545025 40.732919 27.015625 41.261719 C 27.486325 41.798118 28.071444 42.227253 28.777344 42.564453 C 29.483343 42.901653 30.401679 43.153453 31.517578 43.314453 C 32.633377 43.483053 34.05208 43.568359 35.767578 43.568359 L 46.888672 43.568359 C 48.42967 43.568359 49.917389 43.383637 51.367188 43.023438 C 52.817086 42.655638 54.107182 42.06598 55.238281 41.238281 C 56.36928 40.418282 57.265594 39.306695 57.933594 37.904297 C 58.601593 36.501798 58.927734 34.770257 58.927734 32.693359 L 58.927734 3.4101562 C 58.927734 2.5288371 59.033494 1.8768827 59.246094 1.4707031 C 59.458594 1.0568635 59.746716 0.79029061 60.103516 0.65234375 L 60.097656 0.68164062 C 60.461956 0.54369376 60.848338 0.47460938 61.273438 0.47460938 L 63.171875 0.47460938 L 63.171875 0.015625 L 47.564453 0.015625 L 47.564453 0.47460938 L 49.460938 0.47460938 C 49.886037 0.47460938 50.266035 0.53558425 50.615234 0.65820312 C 50.964334 0.780823 51.238572 1.0427441 51.451172 1.4335938 C 51.663672 1.8321134 51.769531 2.4377933 51.769531 3.2578125 L 51.769531 29.904297 C 51.625331 29.597797 51.488162 29.260265 51.351562 28.884766 L 41.21875 0.015625 L 36.785156 0.015625 L 26.833984 27.451172 L 17.414062 11.802734 L 24.109375 4.4902344 C 25.255574 3.2410456 26.195554 2.3366407 26.939453 1.7695312 C 27.675752 1.2024118 28.35981 0.85054047 28.974609 0.69726562 C 29.589509 0.54399178 30.310848 0.46679687 31.123047 0.46679688 L 31.123047 0.0078125 L 19.949219 0.0078125 L 19.949219 0.46679688 C 21.095418 0.46679688 21.998016 0.51350484 22.666016 0.60546875 C 23.326415 0.69743366 23.797013 0.85782735 24.070312 1.0800781 C 24.343512 1.3099879 24.480469 1.6410004 24.480469 2.0625 C 24.480469 2.3690497 24.374709 2.7290336 24.162109 3.1582031 C 23.94961 3.5873727 23.636675 4.0611968 23.234375 4.5976562 C 22.824475 5.1341157 22.324096 5.7316982 21.716797 6.3984375 L 11.355469 17.679688 L 11.355469 3.4257812 C 11.355469 2.5444621 11.461228 1.8925077 11.673828 1.4863281 C 11.886328 1.0724885 12.176403 0.80396249 12.533203 0.66601562 C 12.897503 0.52806876 13.283885 0.45898438 13.708984 0.45898438 L 15.607422 0.45898438 L 15.607422 0 L 0 0 z M 36.056641 3.2421875 C 36.23884 4.0008967 36.47496 4.9129617 36.755859 5.9628906 C 37.044259 7.0128196 37.339403 8.0471373 37.658203 9.0664062 C 37.977003 10.085715 38.251241 10.959613 38.494141 11.695312 L 41.300781 20.240234 L 41.439453 20.699219 L 44.019531 28.371094 C 44.140931 28.708293 44.232269 29.023041 44.292969 29.306641 C 44.353669 29.59784 44.405572 29.850178 44.451172 30.080078 C 44.496672 30.309978 44.519531 30.51706 44.519531 30.693359 C 44.519531 31.214459 44.345506 31.5826 44.003906 31.8125 C 43.654807 32.0424 43.137852 32.15625 42.439453 32.15625 L 39.996094 32.15625 L 39.996094 32.617188 L 51.769531 32.617188 L 51.769531 34.947266 L 51.777344 34.931641 C 51.777344 36.970239 51.503843 38.587492 50.964844 39.775391 C 50.425944 40.963289 49.712843 41.812885 48.839844 42.333984 C 47.966945 42.855084 47.047771 43.109375 46.076172 43.109375 L 38.121094 43.109375 C 37.787094 43.109375 37.453353 43.024069 37.126953 42.855469 C 36.792953 42.686869 36.443953 42.396434 36.064453 41.990234 C 35.684954 41.576435 35.244715 41.009349 34.728516 40.28125 C 34.212316 39.553251 33.596099 38.602611 32.875 37.445312 L 27.144531 27.917969 C 27.159731 27.864369 27.182066 27.819225 27.197266 27.765625 L 29.779297 20.683594 L 33.171875 11.365234 C 33.384375 10.821135 33.620594 10.193533 33.871094 9.4960938 C 34.129193 8.7986944 34.386957 8.0614436 34.660156 7.3027344 C 34.933456 6.5440351 35.182881 5.8087274 35.425781 5.1113281 C 35.668681 4.4139288 35.882041 3.786317 36.056641 3.2421875 z M 36.0625 18.347656 C 35.090901 18.347656 34.300781 19.146054 34.300781 20.126953 C 34.300781 21.107952 35.090901 21.904297 36.0625 21.904297 C 37.034099 21.904297 37.824219 21.107952 37.824219 20.126953 C 37.824219 19.146054 37.034099 18.347656 36.0625 18.347656 z M 63.685547 46.835938 L 59.183594 55.664062 L 59.896484 55.664062 L 60.958984 53.580078 L 66.410156 53.580078 L 67.472656 55.664062 L 68.1875 55.664062 L 63.685547 46.835938 z M 20.160156 47.001953 L 20.160156 55.677734 L 20.796875 55.677734 L 20.796875 49.570312 L 24.28125 55.900391 L 27.78125 49.570312 L 27.78125 55.677734 L 28.417969 55.677734 L 28.417969 47.001953 L 24.28125 54.636719 L 20.160156 47.001953 z M 54.412109 47.017578 C 53.182311 47.017578 52.134618 47.462338 51.261719 48.335938 C 50.39632 49.209637 49.957031 50.268267 49.957031 51.509766 C 49.957031 52.751264 50.38872 53.807941 51.261719 54.681641 C 52.134618 55.56294 53.182311 56 54.412109 56 C 55.474808 56 56.416529 55.662568 57.236328 54.980469 C 58.040927 54.306069 58.549119 53.454633 58.761719 52.427734 L 58.109375 52.427734 C 57.904475 53.278334 57.464449 53.985197 56.78125 54.529297 C 56.082951 55.088796 55.300208 55.363281 54.412109 55.363281 C 53.35691 55.363281 52.462649 54.987327 51.71875 54.236328 C 50.974751 53.485329 50.601563 52.575177 50.601562 51.517578 C 50.601562 50.459979 50.974751 49.547874 51.71875 48.796875 C 52.462649 48.045776 53.36451 47.669922 54.412109 47.669922 L 54.412109 47.654297 C 55.292608 47.654297 56.082951 47.930835 56.78125 48.490234 C 57.464449 49.034334 57.912075 49.731445 58.109375 50.589844 L 58.761719 50.589844 C 58.549119 49.562845 58.040927 48.711509 57.236328 48.037109 C 56.416529 47.35511 55.474808 47.017578 54.412109 47.017578 z M 69.441406 47.308594 L 69.441406 55.662109 L 76 55.662109 L 76 55.017578 L 70.078125 55.017578 L 70.078125 47.308594 L 69.441406 47.308594 z M 30.394531 47.310547 L 30.394531 55.664062 L 36.953125 55.664062 L 36.953125 55.021484 L 31.03125 55.021484 L 31.03125 51.917969 L 36.542969 51.917969 L 36.542969 51.28125 L 31.03125 51.28125 L 31.03125 47.955078 L 36.953125 47.955078 L 36.953125 47.310547 L 30.394531 47.310547 z M 38.449219 47.318359 L 38.449219 55.664062 L 41.972656 55.664062 C 43.111255 55.664062 44.082232 55.257712 44.894531 54.445312 C 45.69913 53.633013 46.101562 52.651452 46.101562 51.501953 C 46.101562 50.352354 45.69913 49.37078 44.894531 48.550781 C 44.082232 47.730782 43.111255 47.324219 41.972656 47.324219 L 41.972656 47.318359 L 38.449219 47.318359 z M 47.699219 47.318359 L 47.699219 55.664062 L 48.335938 55.664062 L 48.335938 47.318359 L 47.699219 47.318359 z M 39.085938 47.960938 L 41.972656 47.960938 C 42.936655 47.960938 43.764066 48.306507 44.447266 49.003906 C 45.130465 49.693606 45.470703 50.528654 45.470703 51.501953 C 45.470703 52.475252 45.130465 53.310301 44.447266 54 C 43.764066 54.689799 42.936655 55.035156 41.972656 55.035156 L 39.085938 55.035156 L 39.085938 47.960938 z M 63.685547 48.230469 L 66.091797 52.943359 L 61.285156 52.943359 L 63.685547 48.230469 z "
       style="fill:#2f67b2;fill-opacity:1" />
  </g>
</svg>
