<?xml version="1.0" encoding="UTF-8"?>
<svg version="1.1" xmlns="http://www.w3.org/2000/svg" width="876" height="510">
<path d="M0 0 C18.211875 -0.0825 36.42375 -0.165 55.1875 -0.25 C60.89571045 -0.28641602 66.6039209 -0.32283203 72.48510742 -0.36035156 C79.56311035 -0.37841797 79.56311035 -0.37841797 82.89741516 -0.3817749 C85.18069089 -0.38783758 87.46395545 -0.4017359 89.74714661 -0.42230225 C106.17280451 -0.56260623 123.64108842 -0.68884229 139 6 C140.41270219 6.31257604 141.83253353 6.59472969 143.2578125 6.84375 C148.28970346 7.91143677 152.4100027 10.00438544 156.875 12.5 C157.62007812 12.90347656 158.36515625 13.30695313 159.1328125 13.72265625 C162.1820752 15.38439474 165.10739283 17.07159522 168 19 C168 19.66 168 20.32 168 21 C169.2065625 21.2475 169.2065625 21.2475 170.4375 21.5 C177.81716616 24.60722786 183.08051215 30.85064019 188 37 C188.825 37.804375 189.65 38.60875 190.5 39.4375 C194.66166985 43.7032116 198.44108781 47.85196587 199 54 C199.66 54 200.32 54 201 54 C212.57923547 76.96173635 214.3861827 97.51648505 214 123 C213.99274902 123.72461426 213.98549805 124.44922852 213.97802734 125.19580078 C213.73505728 141.23594296 207.64158218 155.19658592 200 169 C199.45601562 169.98742187 198.91203125 170.97484375 198.3515625 171.9921875 C190.89437419 184.54208977 180.13529317 194.97621661 168 203 C167.34 203 166.68 203 166 203 C166 203.66 166 204.32 166 205 C110.7654924 232.38893804 69.20122996 223 0 223 C0 149.41 0 75.82 0 0 Z M42 38 C42 86.18 42 134.36 42 184 C92.60319185 186.37544667 92.60319185 186.37544667 140 173 C140 172.34 140 171.68 140 171 C140.680625 170.79375 141.36125 170.5875 142.0625 170.375 C145.37547866 168.82424403 147.6578015 166.87529276 150.3515625 164.4375 C152 163 152 163 155 161 C155.94162063 159.38579321 156.87573375 157.76649447 157.76171875 156.12109375 C159.69462215 152.81015828 162.0187669 149.78788113 164.31640625 146.72265625 C174.59988061 130.09253646 173.82836319 105.73646442 169.66796875 87.38720703 C165.06415937 70.93397308 153.03619563 57.0093495 138.34765625 48.7109375 C106.9485684 32.66332901 80.37260948 38 42 38 Z " fill="#FF7E54" transform="translate(514,194)"/>
<path d="M0 0 C126.42936288 0 126.42936288 0 149 14 C149.62648438 14.37253906 150.25296875 14.74507812 150.8984375 15.12890625 C153.99511158 17.05488647 155.86636708 19.09050056 158 22 C158.61101562 22.28488281 159.22203125 22.56976563 159.8515625 22.86328125 C170.07635694 28.27312704 175.55498601 43.89259726 179.1328125 54.29296875 C184.85904338 74.44596577 182.82245142 95.74639719 175 115 C173.70005068 117.02185794 172.36724958 119.02303101 171 121 C170.53722656 121.99257813 170.07445312 122.98515625 169.59765625 124.0078125 C167.71247534 127.53849362 165.28396575 130.12204495 162.4375 132.875 C161.94314453 133.37257813 161.44878906 133.87015625 160.93945312 134.3828125 C157.26761032 138 157.26761032 138 155 138 C154.67 138.99 154.34 139.98 154 141 C149.90780612 144.11786201 145.73583358 146.10566657 141 148 C141 152.07855567 142.62814055 153.43594188 145.125 156.625 C155.33892386 169.88316847 155.33892386 169.88316847 158 177 C158.66 177 159.32 177 160 177 C161.38525391 178.64550781 161.38525391 178.64550781 162.9765625 180.953125 C163.56139404 181.79496338 164.14622559 182.63680176 164.7487793 183.50415039 C165.36793213 184.41028076 165.98708496 185.31641113 166.625 186.25 C167.25510986 187.16064209 167.88521973 188.07128418 168.53442383 189.00952148 C172.58682087 194.88208504 176.5729976 200.79463265 180.44921875 206.78515625 C181.84049998 208.77220023 183.28243244 210.30596076 185 212 C186.1328125 213.68359375 186.1328125 213.68359375 187.125 215.4375 C187.45757812 216.01371094 187.79015625 216.58992187 188.1328125 217.18359375 C189.04887157 219.10236612 189.51230864 220.93625894 190 223 C183.45399074 223.28000398 176.90953364 223.47196519 170.35888672 223.60424805 C168.133365 223.65940889 165.90823917 223.73436324 163.68408203 223.82983398 C145.21865566 224.60232498 145.21865566 224.60232498 139.78515625 220.67822266 C137.06470126 217.01507836 135.51820118 213.48477593 134.0234375 209.2019043 C133.51683594 208.11196167 133.51683594 208.11196167 133 207 C132.01 206.67 131.02 206.34 130 206 C128.2734375 203.48046875 128.2734375 203.48046875 126.375 200.1875 C122.99159687 194.45369718 119.21566584 189.19302065 115.16015625 183.90625 C112.53461703 180.37387896 110.1938781 176.71380071 107.8984375 172.9609375 C107.27195312 171.98382813 106.64546875 171.00671875 106 170 C105.37914268 168.79485748 105.37914268 168.79485748 104.7457428 167.56536865 C102.43777233 163.56148593 100.69773077 160.55239757 96.16906738 159.07888794 C92.69523408 158.74637086 89.33611293 158.71836693 85.84765625 158.8046875 C84.17745422 158.7903064 84.17745422 158.7903064 82.47351074 158.77563477 C78.33642849 158.75451355 74.19926837 158.81983546 70.0625 158.875 C60.801875 158.91625 51.54125 158.9575 42 159 C42 180.12 42 201.24 42 223 C28.14 223 14.28 223 0 223 C0 149.41 0 75.82 0 0 Z M42 38 C42 65.06 42 92.12 42 120 C51.03375 120.0825 60.0675 120.165 69.375 120.25 C73.59289307 120.30462402 73.59289307 120.30462402 77.89599609 120.36035156 C103.36394924 121.08763197 103.36394924 121.08763197 126 111 C134.6778201 101.855212 140.01509444 92.17060952 140.375 79.25 C139.96759421 70.16879352 137.95501962 60.22251425 131.48046875 53.3984375 C130.034749 52.2052612 128.51877107 51.09868546 127 50 C126.40574219 49.360625 125.81148438 48.72125 125.19921875 48.0625 C122.60366442 45.6283034 120.10439759 44.36130106 116.875 42.875 C115.82054687 42.37742187 114.76609375 41.87984375 113.6796875 41.3671875 C104.65022059 38.01229003 95.89422955 37.72326667 86.3359375 37.8046875 C85.20583252 37.80670166 84.07572754 37.80871582 82.91137695 37.81079102 C78.73254272 37.82117147 74.55376682 37.84909334 70.375 37.875 C56.329375 37.936875 56.329375 37.936875 42 38 Z " fill="#FF7E54" transform="translate(275,194)"/>
<path d="M0 0 C12.87 0 25.74 0 39 0 C49.05671902 20.91797557 49.05671902 20.91797557 52.59375 29.72265625 C54.58526698 34.36399721 56.8028319 38.89066012 59 43.4375 C62.24174509 50.15136501 65.17335019 56.84090878 67.734375 63.84765625 C69.52274465 68.30202138 71.72446218 72.51326188 73.91845703 76.77856445 C76.36919354 81.59681574 78.49952101 86.47957268 80.5 91.5 C83.04871705 97.89331773 85.9413269 104.00363326 89.08984375 110.12109375 C91.92690512 115.69624923 94.18136485 121.38222646 96.4375 127.21875 C98.05740537 131.26851341 100.00576663 135.12399002 102 139 C105.23234219 145.28240944 107.88129753 151.60543377 110.4296875 158.19921875 C112.37970321 163.07425803 114.79188244 167.70754701 117.18188477 172.37768555 C118.9301491 175.81002308 120.56676367 179.20727567 121.9375 182.8125 C123.84636877 187.83180226 126.1355818 192.65209133 128.4375 197.5 C128.83179199 198.33208984 129.22608398 199.16417969 129.63232422 200.02148438 C132.03098709 205.05258234 134.50874373 210.02410911 137.22265625 214.89453125 C138 217 138 217 138 223 C123.48 223 108.96 223 94 223 C91.793125 218.318125 89.58625 213.63625 87.3125 208.8125 C86.62712158 207.36464111 85.94174316 205.91678223 85.2355957 204.42504883 C81.9047057 197.32162784 78.85251578 190.21497449 76.10180664 182.86108398 C74.61932369 179.01148999 72.88065729 175.32471177 71.0625 171.625 C67.96718843 165.19025798 65.24373832 158.71055896 62.64453125 152.05859375 C60.65417727 147.06053746 58.45397047 142.15674581 56.25 137.25 C55.66617554 135.94421997 55.66617554 135.94421997 55.07055664 134.61206055 C54.7018042 133.79648682 54.33305176 132.98091309 53.953125 132.140625 C53.62473633 131.41391602 53.29634766 130.68720703 52.95800781 129.93847656 C51.93366103 127.7611283 51.93366103 127.7611283 50 125 C49.54453754 123.71975783 49.13047906 122.42444098 48.74609375 121.12109375 C46.72818276 114.85708256 43.87060555 109.00364414 41.0625 103.0625 C37.88262428 96.30867807 34.78563088 89.57778784 32.07006836 82.6237793 C29.82615028 77.12175156 27.25927334 71.75973251 24.75 66.375 C24.19570312 65.18003906 23.64140625 63.98507812 23.0703125 62.75390625 C21.71586884 59.83484663 20.35905371 56.91691538 19 54 C18.62141846 54.91048096 18.24283691 55.82096191 17.8527832 56.7590332 C14.79651777 64.08116344 11.49926336 71.20452547 7.8046875 78.22851562 C6.10118659 81.52947622 4.69555539 84.75359881 3.5703125 88.296875 C1.84370813 93.71747505 -0.53311496 98.78932936 -2.9375 103.9375 C-5.79509995 110.08540994 -8.53065945 116.23592248 -11.01049805 122.54614258 C-12.69095043 126.71348206 -14.57028658 130.78879671 -16.4375 134.875 C-19.29315705 141.16959724 -22.06628572 147.48024273 -24.69140625 153.875 C-28.42535911 162.79190236 -32.24562871 171.72301388 -36.6875 180.3125 C-38.47003796 183.78344851 -39.89700672 187.27753853 -41.25 190.9375 C-45.37119003 201.96233958 -50.74131991 212.48263981 -56 223 C-70.19 223 -84.38 223 -99 223 C-99 217.6492619 -98.97149946 216.1970455 -96.76953125 211.8046875 C-96.29902344 210.84820312 -95.82851562 209.89171875 -95.34375 208.90625 C-94.8384375 207.9059375 -94.333125 206.905625 -93.8125 205.875 C-92.78558613 203.79013205 -91.76081583 201.70420679 -90.73828125 199.6171875 C-90.04279175 198.21895752 -90.04279175 198.21895752 -89.33325195 196.79248047 C-87.5403464 193.03726096 -85.98049816 189.20301195 -84.4375 185.33984375 C-82.28452271 180.33768183 -79.8753648 175.46215164 -77.5 170.5625 C-74.07489762 163.49221061 -70.92500075 156.49981957 -68.2421875 149.1171875 C-65.33672972 141.82613307 -61.53162378 134.91128026 -57.93847656 127.94067383 C-55.99573117 124.1250822 -54.30719294 120.35534384 -52.875 116.3125 C-50.27486307 109.39213556 -47.09368367 102.80829384 -43.87133789 96.15917969 C-40.62705081 89.4239603 -37.68150325 82.60511872 -34.83764648 75.69311523 C-32.37674601 69.76301562 -29.62365941 64.05478795 -26.640625 58.37109375 C-25.33050183 55.67910257 -24.19812995 53.03634062 -23.109375 50.25390625 C-20.63663446 43.96024917 -17.67205318 37.93024244 -14.7109375 31.85546875 C-12.69839936 27.68840359 -10.78423532 23.53982242 -9.125 19.21875 C-6.45058454 12.65070028 -3.17149098 6.34298196 0 0 Z " fill="#FF7E54" transform="translate(99,194)"/>
<path d="M0 0 C1.54977539 -0.00580078 1.54977539 -0.00580078 3.13085938 -0.01171875 C18.28996221 0.00748214 29.68320304 2.9526586 42.0625 12.125 C42.8359375 12.68316406 43.609375 13.24132813 44.40625 13.81640625 C50.65932992 18.47495079 56.72567773 23.41348651 59.0625 31.125 C59.7225 31.125 60.3825 31.125 61.0625 31.125 C62.36092341 33.8094149 63.65132859 36.49722104 64.9375 39.1875 C65.48470703 40.31575195 65.48470703 40.31575195 66.04296875 41.46679688 C66.39746094 42.21123047 66.75195312 42.95566406 67.1171875 43.72265625 C67.44187012 44.39820557 67.76655273 45.07375488 68.10107422 45.76977539 C71.43593449 53.93925153 71.54796804 61.89750891 71.5625 70.5625 C71.56384949 71.28219971 71.56519897 72.00189941 71.56658936 72.7434082 C71.53304733 83.9821811 70.70850686 93.17461168 65.0625 103.125 C64.49184814 104.15995605 64.49184814 104.15995605 63.90966797 105.21582031 C59.47850522 113.16050159 55.21765697 119.42980109 48.0625 125.125 C47.26585937 125.82625 46.46921875 126.5275 45.6484375 127.25 C29.58701209 140.87099681 10.42922384 143.66483052 -9.9375 142.125 C-28.15011959 140.19302963 -42.642788 131.47992166 -54.9375 118.125 C-69.50284234 99.53684882 -73.07106607 78.58058764 -70.54296875 55.52734375 C-67.97410649 43.47855109 -61.13500556 31.21643308 -52.9375 22.125 C-52.45410156 21.55007812 -51.97070312 20.97515625 -51.47265625 20.3828125 C-37.60827872 5.07202408 -20.00644822 -0.07460453 0 0 Z M-33.109375 46.55078125 C-39.65160214 55.7630199 -41.85894387 66.04134664 -40.9375 77.125 C-38.18581575 90.28667046 -30.61637546 100.27180492 -19.5859375 107.7109375 C-9.640382 113.02110135 1.43365325 113.21689238 12.0625 110.5 C23.98049123 106.78762894 30.4312794 100.70305932 37.0625 90.125 C42.82110763 78.51260115 43.45028048 68.60084143 39.33203125 56.24609375 C34.37451801 44.05823813 25.18523798 37.02604541 13.859375 30.94140625 C9.53480625 29.67906705 5.29454882 29.75628618 0.8125 29.75 C-0.54294922 29.71326172 -0.54294922 29.71326172 -1.92578125 29.67578125 C-15.02302443 29.61924639 -24.80013977 36.91664827 -33.109375 46.55078125 Z " fill="#FF7D54" transform="translate(803.9375,-0.125)"/>
<path d="M0 0 C78.21 0 156.42 0 237 0 C237 14.19 237 28.38 237 43 C158.79 43 80.58 43 0 43 C0 28.81 0 14.62 0 0 Z " fill="#FF7E54" transform="translate(0,467)"/>
<path d="M0 0 C14.19 0 28.38 0 43 0 C43 73.59 43 147.18 43 223 C28.81 223 14.62 223 0 223 C0 149.41 0 75.82 0 0 Z " fill="#FF7E54" transform="translate(783,194)"/>
</svg>
