<?xml version="1.0" encoding="UTF-8" standalone="no"?>
<!DOCTYPE svg PUBLIC "-//W3C//DTD SVG 1.1//EN" "http://www.w3.org/Graphics/SVG/1.1/DTD/svg11.dtd">
<svg xmlns="http://www.w3.org/2000/svg" version="1.1" viewBox="0.00 0.00 1024.00 1024.00">
<path fill="#ffffff" d="
  M 630.22 366.92
  L 618.69 359.64
  L 618.37 359.28
  L 618.29 358.80
  L 618.98 355.61
  L 619.29 354.75
  L 630.04 328.60
  L 633.52 320.49
  L 636.77 313.58
  L 639.78 307.87
  L 642.55 303.36
  L 646.53 297.92
  L 650.84 292.85
  L 655.52 288.08
  L 660.50 283.69
  L 665.23 280.08
  L 670.17 276.78
  L 675.33 273.80
  L 680.68 271.16
  L 686.27 268.82
  L 692.04 266.82
  L 697.98 265.16
  L 704.08 263.85
  L 704.89 263.85
  L 705.65 264.13
  L 706.26 264.66
  L 706.65 265.37
  L 707.69 268.90
  L 708.57 272.67
  L 709.76 280.52
  L 710.24 288.99
  L 710.03 298.36
  L 710.02 298.52
  L 710.02 298.52
  L 710.02 298.52
  L 710.02 298.52
  L 709.65 302.64
  L 709.02 306.73
  L 708.14 310.81
  L 707.01 314.88
  L 705.62 318.93
  L 703.98 322.96
  L 702.09 326.98
  L 699.94 330.99
  L 697.60 334.70
  L 694.54 338.85
  L 690.75 343.46
  L 686.24 348.52
  L 678.72 356.73
  L 667.06 369.34
  L 658.29 378.33
  L 653.85 382.64
  L 653.30 382.90
  L 652.71 382.76
  L 641.51 375.68
  L 641.26 375.33
  L 641.33 374.91
  L 641.33 374.91
  L 641.33 374.91
  L 652.14 357.79
  L 652.43 357.09
  L 652.47 356.32
  L 652.18 354.74
  L 652.18 354.74
  L 651.03 351.68
  L 649.14 348.81
  L 648.44 348.25
  L 647.56 348.06
  L 644.76 348.39
  L 642.25 349.30
  L 640.97 350.06
  L 640.41 350.66
  L 630.86 366.77
  L 630.86 366.77
  L 630.57 366.98
  L 630.22 366.92
  Z
  M 697.81 302.41
  L 697.51 299.37
  L 696.62 296.44
  L 695.18 293.75
  L 693.24 291.39
  L 690.88 289.45
  L 688.19 288.01
  L 685.26 287.12
  L 682.22 286.82
  L 679.18 287.12
  L 676.25 288.01
  L 673.56 289.45
  L 671.20 291.39
  L 669.26 293.75
  L 667.82 296.44
  L 666.93 299.37
  L 666.63 302.41
  L 666.93 305.45
  L 667.82 308.38
  L 669.26 311.07
  L 671.20 313.43
  L 673.56 315.37
  L 676.25 316.81
  L 679.18 317.70
  L 682.22 318.00
  L 685.26 317.70
  L 688.19 316.81
  L 690.88 315.37
  L 693.24 313.43
  L 695.18 311.07
  L 696.62 308.38
  L 697.51 305.45
  L 697.81 302.41
  Z"
/>
<path fill="#ffffff" d="
  M 633.64 307.09
  L 633.97 307.18
  L 634.09 307.51
  L 634.06 307.62
  L 627.61 322.01
  L 621.29 337.29
  L 619.98 340.18
  L 618.46 342.77
  L 618.13 343.03
  L 617.72 343.04
  L 614.45 342.25
  L 611.39 341.96
  L 608.53 342.18
  L 605.87 342.90
  L 600.81 345.06
  L 595.83 347.66
  L 590.91 350.68
  L 586.07 354.13
  L 585.92 354.22
  L 585.28 354.19
  L 584.91 353.67
  L 585.14 352.88
  L 605.16 314.67
  L 606.20 313.25
  L 607.55 312.32
  L 609.26 311.76
  L 633.64 307.09
  Z"
/>
<path fill="#ffffff" d="
  M 536.90 423.47
  L 615.90 362.89
  L 616.69 362.43
  L 617.56 362.18
  L 618.33 362.20
  L 619.02 362.49
  L 619.50 362.97
  L 619.83 363.71
  L 619.85 364.18
  L 619.64 364.60
  L 610.24 375.41
  L 601.25 385.15
  L 586.21 401.28
  L 544.02 446.76
  L 538.88 452.63
  L 537.88 453.50
  L 536.95 453.87
  L 535.94 454.00
  L 533.06 453.64
  L 531.13 453.33
  L 529.76 453.33
  L 519.93 454.85
  L 516.08 455.73
  L 512.94 456.71
  L 506.24 459.30
  L 499.34 462.22
  L 499.04 462.24
  L 498.79 462.07
  L 496.05 458.65
  L 493.00 455.75
  L 489.24 452.84
  L 485.37 450.19
  L 481.30 447.75
  L 477.15 445.59
  L 472.87 443.68
  L 468.52 442.06
  L 464.11 440.71
  L 459.65 439.64
  L 455.10 438.84
  L 450.53 438.33
  L 445.94 438.10
  L 441.36 438.17
  L 436.80 438.52
  L 432.26 439.16
  L 427.77 440.09
  L 423.33 441.31
  L 418.91 442.84
  L 414.58 444.66
  L 410.43 446.73
  L 406.39 449.08
  L 402.48 451.71
  L 398.69 454.61
  L 395.12 457.73
  L 391.70 461.12
  L 388.58 464.68
  L 385.74 468.44
  L 383.11 472.53
  L 380.76 476.80
  L 378.63 481.34
  L 376.72 486.23
  L 375.09 491.24
  L 373.70 496.55
  L 373.38 497.01
  L 372.84 497.14
  L 365.13 495.96
  L 361.05 495.49
  L 356.97 495.36
  L 352.81 495.60
  L 348.70 496.18
  L 344.62 497.10
  L 340.64 498.36
  L 336.78 499.94
  L 333.06 501.84
  L 332.38 501.88
  L 331.93 501.37
  L 331.91 501.17
  L 332.02 446.00
  L 331.90 396.25
  L 331.98 391.34
  L 332.26 386.61
  L 332.74 382.08
  L 333.43 377.74
  L 334.46 373.02
  L 335.78 368.38
  L 337.39 363.85
  L 339.26 359.43
  L 341.40 355.15
  L 343.79 351.03
  L 346.44 347.08
  L 349.33 343.32
  L 352.41 339.83
  L 355.71 336.56
  L 359.15 333.59
  L 362.78 330.87
  L 366.52 328.46
  L 370.44 326.31
  L 374.44 324.48
  L 378.60 322.93
  L 383.52 321.54
  L 388.62 320.54
  L 395.76 319.78
  L 402.75 319.67
  L 409.58 320.23
  L 416.26 321.45
  L 421.18 322.80
  L 426.01 324.53
  L 432.09 327.23
  L 437.61 330.26
  L 442.15 333.25
  L 446.69 336.74
  L 451.37 340.85
  L 456.41 345.77
  L 472.46 361.86
  L 485.71 374.55
  L 498.92 387.35
  L 516.95 405.26
  L 536.11 423.43
  L 536.50 423.60
  L 536.90 423.47
  Z"
/>
<path fill="#ffffff" d="
  M 695.53 345.84
  L 696.21 347.31
  L 701.03 370.49
  L 701.11 371.63
  L 700.88 372.85
  L 700.34 374.13
  L 699.48 375.48
  L 673.22 411.08
  L 672.91 411.22
  L 672.63 411.02
  L 672.63 411.02
  L 672.60 410.85
  L 673.82 391.11
  L 673.84 390.72
  L 674.01 386.00
  L 673.88 382.90
  L 673.39 380.21
  L 672.51 377.87
  L 671.56 376.25
  L 670.31 374.67
  L 670.09 374.10
  L 670.31 373.53
  L 695.25 345.81
  L 695.27 345.79
  L 695.53 345.84
  Z"
/>
<path fill="#ffffff" d="
  M 647.66 352.40
  L 648.36 352.99
  L 648.79 353.66
  L 649.00 354.59
  L 648.89 355.57
  L 648.50 356.65
  L 647.80 357.87
  L 638.50 371.53
  L 634.14 377.66
  L 626.94 386.47
  L 624.99 388.57
  L 624.13 389.14
  L 624.29 388.12
  L 625.39 385.47
  L 630.37 375.25
  L 634.11 368.72
  L 642.62 354.56
  L 643.44 353.41
  L 644.26 352.61
  L 645.11 352.10
  L 646.04 351.90
  L 646.83 352.01
  L 647.66 352.40
  Z"
/>
<path fill="#ffffff" d="
  M 595.22 434.61
  L 595.29 434.91
  L 595.59 434.99
  L 595.73 434.90
  L 628.23 398.48
  L 631.57 394.91
  L 634.68 392.02
  L 634.82 391.96
  L 635.07 392.08
  L 635.08 392.35
  L 633.74 394.89
  L 626.05 409.55
  L 620.35 420.82
  L 615.44 431.09
  L 611.35 440.32
  L 605.28 454.93
  L 599.57 469.24
  L 594.22 483.26
  L 589.23 496.97
  L 589.01 498.58
  L 589.01 498.58
  L 589.25 499.58
  L 589.79 500.56
  L 592.07 504.39
  L 593.65 508.46
  L 594.38 511.68
  L 594.70 514.98
  L 594.60 518.35
  L 594.09 521.77
  L 593.16 525.73
  L 592.06 529.51
  L 590.79 533.09
  L 589.35 536.49
  L 589.52 536.90
  L 589.54 536.91
  L 590.46 536.95
  L 591.80 536.58
  L 596.07 535.43
  L 599.23 534.80
  L 602.07 534.51
  L 604.79 534.55
  L 607.93 535.02
  L 611.68 536.06
  L 615.16 537.43
  L 618.39 539.13
  L 621.35 541.17
  L 621.35 541.17
  L 621.35 541.17
  L 624.82 544.35
  L 627.85 548.09
  L 630.17 552.03
  L 631.86 556.25
  L 632.93 560.75
  L 633.32 565.34
  L 633.02 569.89
  L 632.05 574.35
  L 630.45 578.51
  L 628.18 582.41
  L 624.12 587.63
  L 619.70 592.16
  L 614.91 595.99
  L 609.76 599.13
  L 609.76 599.13
  L 609.76 599.13
  L 609.76 599.13
  L 606.85 600.52
  L 603.83 601.71
  L 600.71 602.71
  L 597.48 603.50
  L 594.15 604.09
  L 590.72 604.49
  L 587.18 604.68
  L 583.53 604.67
  L 580.44 604.44
  L 576.90 603.93
  L 568.48 602.02
  L 562.96 600.32
  L 557.69 598.22
  L 552.69 595.73
  L 547.95 592.86
  L 547.95 592.86
  L 545.16 590.89
  L 540.92 587.33
  L 535.19 581.81
  L 523.06 569.61
  L 501.27 547.82
  L 484.77 531.90
  L 467.73 515.30
  L 442.16 489.58
  L 440.80 488.54
  L 439.40 488.12
  L 438.26 488.25
  L 437.08 488.77
  L 432.05 492.04
  L 427.47 495.49
  L 423.45 499.03
  L 419.89 502.74
  L 416.82 506.60
  L 414.27 510.58
  L 412.16 514.78
  L 410.59 519.08
  L 409.06 524.55
  L 407.82 529.95
  L 406.87 535.26
  L 406.16 540.66
  L 405.66 546.33
  L 405.35 552.49
  L 404.86 561.83
  L 404.15 567.45
  L 402.61 573.15
  L 400.55 578.43
  L 397.97 583.31
  L 394.87 587.78
  L 392.86 590.17
  L 390.67 592.43
  L 388.30 594.55
  L 385.77 596.53
  L 381.23 599.51
  L 376.59 601.88
  L 371.84 603.64
  L 366.98 604.81
  L 366.98 604.81
  L 366.98 604.81
  L 362.43 605.34
  L 359.46 605.42
  L 356.52 605.30
  L 350.73 604.47
  L 344.99 602.87
  L 339.52 600.55
  L 334.33 597.52
  L 329.53 593.86
  L 325.20 589.60
  L 321.40 584.81
  L 319.45 581.75
  L 317.82 578.60
  L 316.62 575.77
  L 315.64 572.88
  L 314.85 569.84
  L 314.28 566.74
  L 313.89 563.45
  L 313.72 560.11
  L 313.98 553.05
  L 314.78 548.01
  L 316.28 542.95
  L 318.40 538.11
  L 321.19 533.37
  L 324.56 528.91
  L 328.40 524.87
  L 332.72 521.23
  L 337.38 518.13
  L 341.88 515.87
  L 345.72 514.48
  L 349.73 513.49
  L 353.91 512.89
  L 358.25 512.69
  L 362.58 512.87
  L 366.78 513.41
  L 370.85 514.31
  L 374.77 515.58
  L 374.77 515.58
  L 374.77 515.58
  L 374.77 515.58
  L 378.36 517.11
  L 381.82 518.96
  L 385.16 521.13
  L 388.38 523.63
  L 388.49 523.69
  L 388.83 523.65
  L 388.98 523.34
  L 389.00 518.59
  L 389.25 513.82
  L 389.72 509.02
  L 390.43 504.20
  L 391.52 499.20
  L 393.06 494.38
  L 395.06 489.66
  L 397.47 485.16
  L 400.32 480.81
  L 403.54 476.75
  L 407.17 472.93
  L 411.12 469.44
  L 415.31 466.35
  L 419.76 463.64
  L 424.43 461.33
  L 429.30 459.45
  L 434.19 458.05
  L 439.20 457.11
  L 444.21 456.63
  L 449.29 456.63
  L 452.72 456.91
  L 456.09 457.43
  L 459.50 458.21
  L 462.84 459.22
  L 466.22 460.49
  L 469.51 461.98
  L 472.79 463.72
  L 475.98 465.68
  L 479.14 467.88
  L 482.18 470.28
  L 485.17 472.91
  L 488.01 475.70
  L 490.73 478.67
  L 493.28 481.77
  L 495.72 485.07
  L 497.98 488.47
  L 498.42 488.76
  L 498.93 488.64
  L 498.93 488.64
  L 498.98 488.59
  L 502.08 484.88
  L 504.46 481.93
  L 506.47 479.91
  L 509.53 477.51
  L 512.71 475.52
  L 516.00 473.95
  L 519.40 472.79
  L 519.40 472.79
  L 519.40 472.79
  L 519.40 472.79
  L 524.13 471.90
  L 529.07 471.75
  L 534.21 472.34
  L 539.55 473.68
  L 540.75 473.96
  L 541.94 474.03
  L 542.63 473.97
  L 543.37 473.72
  L 543.98 473.22
  L 617.80 382.84
  L 618.30 382.67
  L 618.67 383.05
  L 618.67 383.05
  L 618.63 383.37
  L 606.96 407.89
  L 595.99 432.25
  L 595.22 434.61
  Z"
/>
<path fill="#ffffff" d="
  M 647.57 550.04
  L 645.35 545.44
  L 643.75 541.95
  L 642.32 539.42
  L 639.32 535.29
  L 636.02 531.67
  L 631.63 527.89
  L 626.63 524.60
  L 620.90 521.71
  L 614.36 519.20
  L 613.55 518.79
  L 612.89 518.16
  L 612.44 517.37
  L 612.24 516.49
  L 611.75 512.82
  L 610.85 509.28
  L 610.85 509.28
  L 610.85 509.28
  L 609.90 506.70
  L 608.73 504.20
  L 608.37 503.05
  L 608.42 501.84
  L 611.32 490.06
  L 614.28 479.77
  L 617.64 469.59
  L 635.34 419.58
  L 648.13 384.83
  L 648.75 384.04
  L 649.70 383.89
  L 650.24 384.07
  L 650.69 384.42
  L 650.98 384.92
  L 651.08 385.48
  L 650.97 396.36
  L 650.66 405.54
  L 648.66 447.16
  L 648.00 467.75
  L 647.95 484.54
  L 647.92 513.65
  L 648.19 536.18
  L 648.18 542.50
  L 647.90 549.96
  L 647.87 550.04
  L 647.57 550.04
  Z"
/>
<path fill="#ffffff" d="
  M 460.13 665.92
  L 466.46 666.37
  L 472.54 667.56
  L 478.42 669.48
  L 483.93 672.07
  L 489.03 675.32
  L 493.64 679.17
  L 497.70 683.58
  L 501.17 688.50
  L 502.74 691.31
  L 504.12 694.24
  L 505.31 697.30
  L 506.28 700.47
  L 507.02 703.69
  L 507.55 707.02
  L 507.84 710.34
  L 507.91 713.74
  L 507.76 717.14
  L 507.38 720.45
  L 506.78 723.76
  L 505.96 726.97
  L 504.91 730.12
  L 503.66 733.14
  L 502.21 736.04
  L 500.56 738.81
  L 496.98 743.65
  L 492.81 747.96
  L 488.11 751.70
  L 482.94 754.82
  L 477.37 757.28
  L 471.45 759.06
  L 465.34 760.10
  L 458.99 760.40
  L 452.66 759.95
  L 446.58 758.76
  L 440.70 756.84
  L 435.20 754.25
  L 430.10 751.00
  L 425.49 747.15
  L 421.42 742.74
  L 417.96 737.82
  L 416.38 735.01
  L 415.00 732.08
  L 413.82 729.02
  L 412.85 725.86
  L 412.10 722.63
  L 411.58 719.30
  L 411.28 715.98
  L 411.21 712.58
  L 411.37 709.18
  L 411.74 705.87
  L 412.34 702.56
  L 413.16 699.35
  L 414.21 696.20
  L 415.47 693.18
  L 416.92 690.28
  L 418.56 687.51
  L 422.14 682.67
  L 426.31 678.36
  L 431.01 674.63
  L 436.19 671.50
  L 441.75 669.04
  L 447.68 667.26
  L 453.78 666.22
  L 460.13 665.92
  Z
  M 460.3123 740.4894
  L 462.8169 740.2879
  L 465.2900 739.8255
  L 467.7078 739.1068
  L 470.0471 738.1385
  L 472.2853 736.9301
  L 474.4008 735.4932
  L 476.3734 733.8415
  L 478.1839 731.9911
  L 479.8149 729.9596
  L 481.2508 727.7668
  L 482.4777 725.4337
  L 483.4838 722.9828
  L 484.2594 720.4377
  L 484.7970 717.8228
  L 485.0915 715.1635
  L 485.1400 712.4852
  L 484.9421 709.8138
  L 484.4996 707.1751
  L 483.8168 704.5943
  L 482.9004 702.0964
  L 481.7591 699.7055
  L 480.4038 697.4445
  L 478.8478 695.3353
  L 477.1059 693.3981
  L 475.1949 691.6516
  L 473.1333 690.1126
  L 470.9408 688.7960
  L 468.6386 687.7144
  L 466.2490 686.8782
  L 463.7948 686.2956
  L 461.2997 685.9720
  L 458.7877 685.9106
  L 458.7877 685.9106
  L 456.2831 686.1121
  L 453.8100 686.5745
  L 451.3922 687.2932
  L 449.0529 688.2615
  L 446.8147 689.4699
  L 444.6992 690.9068
  L 442.7266 692.5585
  L 440.9161 694.4089
  L 439.2851 696.4404
  L 437.8492 698.6332
  L 436.6223 700.9663
  L 435.6162 703.4172
  L 434.8406 705.9623
  L 434.3030 708.5772
  L 434.0085 711.2365
  L 433.9600 713.9148
  L 434.1579 716.5862
  L 434.6004 719.2249
  L 435.2832 721.8057
  L 436.1996 724.3036
  L 437.3409 726.6945
  L 438.6962 728.9555
  L 440.2522 731.0647
  L 441.9941 733.0019
  L 443.9051 734.7484
  L 445.9667 736.2874
  L 448.1592 737.6040
  L 450.4614 738.6856
  L 452.8510 739.5218
  L 455.3052 740.1044
  L 457.8003 740.4280
  L 460.3123 740.4894
  Z"
/>
<path fill="#ffffff" d="
  M 366.58 719.55
  L 366.14 717.79
  L 365.99 715.50
  L 365.95 668.94
  L 366.10 668.19
  L 366.52 667.56
  L 367.16 667.14
  L 367.91 666.99
  L 387.10 666.99
  L 387.76 667.26
  L 388.03 667.91
  L 388.03 667.91
  L 388.03 757.57
  L 387.87 757.94
  L 387.49 758.10
  L 371.90 758.10
  L 370.40 757.76
  L 369.20 756.79
  L 329.69 706.34
  L 329.36 706.20
  L 329.07 706.41
  L 329.03 706.57
  L 329.03 758.01
  L 328.72 758.72
  L 327.98 758.97
  L 327.89 758.96
  L 325.23 758.59
  L 322.39 758.43
  L 314.93 758.70
  L 309.25 758.98
  L 308.41 758.88
  L 307.76 758.54
  L 307.21 757.70
  L 307.02 756.42
  L 306.91 716.78
  L 306.86 684.62
  L 307.13 668.26
  L 307.26 667.70
  L 307.60 667.22
  L 308.08 666.91
  L 308.65 666.80
  L 323.24 666.80
  L 324.38 667.07
  L 325.29 667.81
  L 366.06 719.85
  L 366.22 719.96
  L 366.52 719.86
  L 366.58 719.55
  Z"
/>
<path fill="#ffffff" d="
  M 565.50 728.74
  L 565.53 728.79
  L 565.79 728.74
  L 588.29 668.60
  L 588.67 667.92
  L 589.23 667.39
  L 589.93 667.05
  L 590.69 666.93
  L 611.17 666.93
  L 611.18 666.93
  L 611.88 667.23
  L 612.16 667.94
  L 612.02 669.14
  L 611.64 670.39
  L 575.73 757.33
  L 575.28 757.88
  L 574.61 758.08
  L 555.97 758.08
  L 555.22 757.85
  L 554.73 757.25
  L 518.09 668.05
  L 518.13 667.36
  L 518.68 666.95
  L 518.68 666.95
  L 518.84 666.93
  L 540.65 666.93
  L 541.88 667.31
  L 542.67 668.32
  L 565.50 728.74
  Z"
/>
<path fill="#ffffff" d="
  M 712.69 757.39
  L 712.70 757.81
  L 712.38 758.08
  L 712.27 758.09
  L 690.06 758.09
  L 689.60 757.95
  L 689.30 757.58
  L 682.72 741.31
  L 682.52 740.97
  L 682.01 740.54
  L 681.30 740.24
  L 679.25 739.98
  L 645.90 740.11
  L 644.98 740.41
  L 644.40 741.19
  L 641.54 748.88
  L 638.33 756.56
  L 637.49 758.03
  L 636.52 758.90
  L 635.49 759.19
  L 614.90 758.67
  L 614.57 758.51
  L 614.49 758.16
  L 614.49 758.16
  L 614.51 758.08
  L 651.68 668.86
  L 652.14 668.09
  L 652.79 667.48
  L 653.60 667.08
  L 654.48 666.92
  L 662.77 666.78
  L 672.02 666.94
  L 673.16 667.12
  L 674.10 667.59
  L 674.73 668.23
  L 675.21 669.09
  L 706.90 743.78
  L 709.05 749.07
  L 711.07 754.01
  L 712.69 757.39
  Z
  M 663.44 722.00
  L 667.48 722.07
  L 671.52 722.11
  L 674.41 721.82
  L 674.81 721.54
  L 674.87 721.06
  L 674.84 720.99
  L 669.07 707.55
  L 663.70 693.50
  L 663.60 693.34
  L 663.30 693.25
  L 663.01 693.35
  L 662.91 693.51
  L 657.67 707.61
  L 652.02 721.10
  L 652.00 721.16
  L 652.06 721.65
  L 652.46 721.92
  L 655.35 722.19
  L 659.39 722.11
  L 663.44 722.00
  Z"
/>
</svg>
