<svg width="26" height="30" viewBox="0 0 26 30" fill="none" xmlns="http://www.w3.org/2000/svg">
<path d="M9.47224 27C10.4124 27.8298 11.6474 28.3333 13 28.3333C14.3526 28.3333 15.5876 27.8298 16.5278 27M21 9.66666C21 7.54492 20.1572 5.51009 18.6569 4.0098C17.1566 2.50951 15.1217 1.66666 13 1.66666C10.8783 1.66666 8.84344 2.50951 7.34315 4.0098C5.84286 5.51009 5 7.54492 5 9.66666C5 13.7869 3.96063 16.6079 2.79956 18.4739C1.82017 20.0478 1.33048 20.8348 1.34844 21.0543C1.36832 21.2974 1.41982 21.3901 1.61571 21.5354C1.79262 21.6667 2.59013 21.6667 4.18514 21.6667H21.8149C23.4099 21.6667 24.2074 21.6667 24.3843 21.5354C24.5802 21.3901 24.6317 21.2974 24.6516 21.0543C24.6695 20.8348 24.1798 20.0478 23.2005 18.4739C22.0394 16.6079 21 13.7869 21 9.66666Z" stroke="#141211" stroke-width="2" stroke-linecap="round" stroke-linejoin="round"/>
<path d="M9.47224 27C10.4124 27.8298 11.6474 28.3333 13 28.3333C14.3526 28.3333 15.5876 27.8298 16.5278 27M21 9.66666C21 7.54492 20.1572 5.51009 18.6569 4.0098C17.1566 2.50951 15.1217 1.66666 13 1.66666C10.8783 1.66666 8.84344 2.50951 7.34315 4.0098C5.84286 5.51009 5 7.54492 5 9.66666C5 13.7869 3.96063 16.6079 2.79956 18.4739C1.82017 20.0478 1.33048 20.8348 1.34844 21.0543C1.36832 21.2974 1.41982 21.3901 1.61571 21.5354C1.79262 21.6667 2.59013 21.6667 4.18514 21.6667H21.8149C23.4099 21.6667 24.2074 21.6667 24.3843 21.5354C24.5802 21.3901 24.6317 21.2974 24.6516 21.0543C24.6695 20.8348 24.1798 20.0478 23.2005 18.4739C22.0394 16.6079 21 13.7869 21 9.66666Z" stroke="black" stroke-opacity="0.2" stroke-width="2" stroke-linecap="round" stroke-linejoin="round"/>
</svg>
